# xmcd CD database file
#
# Track frame offsets:
#	150
#	20477
#	44755
#
# Disc length: 865 seconds
#
# Revision: 4
# Processed by: cddbd v1.5PL3 Copyright (c) Steve Scherf et al.
# Submitted via: CDex 1.51
#
DISCID=22035f03
DTITLE=TUBE - IN MY DREAM
DYEAR=1999
DGENRE=JPop
TTITLE0=IN MY DREAM
TTITLE1=世界で君だけが…
TTITLE2=IN MY DREAM (オリジナル･カラオケ)
EXTD=YEAR: 1999
EXTT0=
EXTT1=
EXTT2=
PLAYORDER=
